<svg width="176" height="27" viewBox="0 0 176 27" fill="none" xmlns="http://www.w3.org/2000/svg">
<path d="M12.932 21.428C15.164 21.428 17.06 20.624 18.62 19.016L22.256 22.364C20.456 24.212 18.308 25.424 15.812 26C14.852 26.216 13.88 26.324 12.896 26.324C11.936 26.324 10.988 26.216 10.052 26C7.148 25.352 4.748 23.852 2.852 21.5C0.956 19.148 0.00800003 16.448 0.00800003 13.4C0.00800003 11.384 0.44 9.488 1.304 7.712C2.192 5.936 3.392 4.448 4.904 3.248C6.44 2.048 8.156 1.232 10.052 0.799998C10.988 0.583998 11.936 0.475998 12.896 0.475998C13.88 0.475998 14.852 0.583998 15.812 0.799998C18.308 1.376 20.456 2.588 22.256 4.436L18.62 7.784C17.06 6.176 15.164 5.372 12.932 5.372C10.724 5.372 8.828 6.164 7.244 7.748C5.684 9.308 4.904 11.192 4.904 13.4C4.904 15.608 5.684 17.504 7.244 19.088C8.828 20.648 10.724 21.428 12.932 21.428ZM29.7263 12.536C28.7183 13.544 28.2143 14.768 28.2143 16.208C28.2143 17.648 28.7183 18.872 29.7263 19.88C30.7583 20.888 31.9943 21.392 33.4343 21.392C34.8743 21.392 36.0983 20.888 37.1063 19.88C38.1383 18.872 38.6543 17.648 38.6543 16.208C38.6543 14.768 38.1383 13.544 37.1063 12.536C36.0983 11.504 34.8743 10.988 33.4343 10.988C31.9943 10.988 30.7583 11.504 29.7263 12.536ZM23.3183 16.208C23.3183 14.36 23.7623 12.668 24.6503 11.132C25.5623 9.572 26.7983 8.348 28.3583 7.46C29.9183 6.548 31.6103 6.092 33.4343 6.092C34.0343 6.092 34.6343 6.14 35.2343 6.236L38.6543 8.216V6.38H43.5503V26H38.6543V24.2L35.2343 26.144C34.6343 26.264 34.0343 26.324 33.4343 26.324C30.6503 26.324 28.2623 25.34 26.2703 23.372C24.3023 21.38 23.3183 18.992 23.3183 16.208ZM52.5292 8.216L56.0932 6.164C56.5012 6.116 56.9092 6.092 57.3172 6.092C58.6612 6.092 59.9452 6.356 61.1692 6.884L60.2332 11.996C59.4892 11.42 58.6612 11.072 57.7492 10.952C56.8372 10.832 55.9972 10.928 55.2292 11.24C54.4852 11.528 53.8492 12.08 53.3212 12.896C52.7932 13.688 52.5292 14.648 52.5292 15.776V26H47.6332V6.38H52.5292V8.216ZM65.2586 9.044C67.2506 7.076 69.6386 6.092 72.4226 6.092C75.2066 6.092 77.5826 7.076 79.5506 9.044C81.5426 11.012 82.5386 13.4 82.5386 16.208C82.5386 16.784 82.4906 17.36 82.3946 17.936H67.5266C67.8866 18.968 68.5106 19.808 69.3986 20.456C70.2866 21.08 71.2946 21.392 72.4226 21.392C74.1746 21.392 75.5666 20.696 76.5986 19.304H82.0706C81.3986 21.368 80.1746 23.06 78.3986 24.38C76.6466 25.676 74.6546 26.324 72.4226 26.324C69.6386 26.324 67.2506 25.34 65.2586 23.372C63.2906 21.38 62.3066 18.992 62.3066 16.208C62.3066 13.4 63.2906 11.012 65.2586 9.044ZM67.8866 13.652H76.9946C76.5386 12.836 75.9026 12.188 75.0866 11.708C74.2706 11.228 73.3826 10.988 72.4226 10.988C71.4626 10.988 70.5746 11.228 69.7586 11.708C68.9426 12.188 68.3186 12.836 67.8866 13.652ZM97.5883 21.428C99.8203 21.428 101.716 20.624 103.276 19.016L106.912 22.364C105.112 24.212 102.964 25.424 100.468 26C99.5083 26.216 98.5363 26.324 97.5523 26.324C96.5923 26.324 95.6443 26.216 94.7083 26C91.8043 25.352 89.4043 23.852 87.5083 21.5C85.6123 19.148 84.6643 16.448 84.6643 13.4C84.6643 11.384 85.0963 9.488 85.9603 7.712C86.8483 5.936 88.0483 4.448 89.5603 3.248C91.0963 2.048 92.8123 1.232 94.7083 0.799998C95.6443 0.583998 96.5923 0.475998 97.5523 0.475998C98.5363 0.475998 99.5083 0.583998 100.468 0.799998C102.964 1.376 105.112 2.588 106.912 4.436L103.276 7.784C101.716 6.176 99.8203 5.372 97.5883 5.372C95.3803 5.372 93.4843 6.164 91.9003 7.748C90.3403 9.308 89.5603 11.192 89.5603 13.4C89.5603 15.608 90.3403 17.504 91.9003 19.088C93.4843 20.648 95.3803 21.428 97.5883 21.428ZM114.404 8.216L117.968 6.164C118.376 6.116 118.784 6.092 119.192 6.092C120.536 6.092 121.82 6.356 123.044 6.884L122.108 11.996C121.364 11.42 120.536 11.072 119.624 10.952C118.712 10.832 117.872 10.928 117.104 11.24C116.36 11.528 115.724 12.08 115.196 12.896C114.668 13.688 114.404 14.648 114.404 15.776V26H109.508V6.38H114.404V8.216ZM127.134 9.044C129.126 7.076 131.514 6.092 134.298 6.092C137.082 6.092 139.458 7.076 141.426 9.044C143.418 11.012 144.414 13.4 144.414 16.208C144.414 16.784 144.366 17.36 144.27 17.936H129.402C129.762 18.968 130.386 19.808 131.274 20.456C132.162 21.08 133.17 21.392 134.298 21.392C136.05 21.392 137.442 20.696 138.474 19.304H143.946C143.274 21.368 142.05 23.06 140.274 24.38C138.522 25.676 136.53 26.324 134.298 26.324C131.514 26.324 129.126 25.34 127.134 23.372C125.166 21.38 124.182 18.992 124.182 16.208C124.182 13.4 125.166 11.012 127.134 9.044ZM129.762 13.652H138.87C138.414 12.836 137.778 12.188 136.962 11.708C136.146 11.228 135.258 10.988 134.298 10.988C133.338 10.988 132.45 11.228 131.634 11.708C130.818 12.188 130.194 12.836 129.762 13.652ZM154.253 18.764L157.781 6.38H162.857L166.385 18.764L169.913 6.38H175.025L169.445 26H163.361L160.301 15.344L157.277 26H151.193L145.613 6.38H150.725L154.253 18.764Z" fill="#2353B2"/>
</svg>
