<?xml version="1.0" encoding="UTF-8" standalone="no"?>
<!DOCTYPE svg PUBLIC "-//W3C//DTD SVG 1.1//EN" "http://www.w3.org/Graphics/SVG/1.1/DTD/svg11.dtd">
<svg width="100%" height="100%" viewBox="0 0 33 10" version="1.1" xmlns="http://www.w3.org/2000/svg" xmlns:xlink="http://www.w3.org/1999/xlink" xml:space="preserve" xmlns:serif="http://www.serif.com/" style="fill-rule:evenodd;clip-rule:evenodd;">
    <g transform="matrix(0.32,0,0,0.32,-11.3253,-0.0231258)">
        <g transform="matrix(0.234882,0,0,0.234882,-276.798,-223.294)">
            <g transform="matrix(0.837426,0,0,0.837426,111.317,236.264)">
                <path d="M1529.21,951.132C1535.27,951.132 1540.41,948.95 1544.64,944.587L1554.51,953.672C1549.63,958.686 1543.8,961.975 1537.03,963.538C1534.42,964.124 1531.8,964.417 1529.16,964.417C1526.53,964.417 1523.94,964.124 1521.4,963.538C1513.52,961.779 1507.01,957.709 1501.86,951.327C1496.71,944.945 1494.14,937.619 1494.14,929.348C1494.14,923.878 1495.33,918.733 1497.71,913.914C1500.09,909.095 1503.34,905.058 1507.48,901.802C1511.61,898.545 1516.25,896.331 1521.4,895.159C1523.94,894.573 1526.53,894.28 1529.16,894.28C1531.8,894.28 1534.42,894.573 1537.03,895.159C1543.8,896.722 1549.63,900.011 1554.51,905.025L1544.64,914.11C1540.41,909.747 1535.27,907.565 1529.21,907.565C1523.22,907.565 1518.09,909.698 1513.83,913.963C1509.56,918.229 1507.43,923.357 1507.43,929.348C1507.43,935.34 1509.56,940.468 1513.83,944.734C1518.09,948.999 1523.22,951.132 1529.21,951.132Z"/>
            </g>
            <g transform="matrix(0.837426,0,0,0.837426,111.317,236.264)">
                <path d="M1574.73,927.004C1572,929.739 1570.63,933.06 1570.63,936.968C1570.63,940.875 1572.01,944.196 1574.78,946.931C1577.55,949.667 1580.89,951.034 1584.79,951.034C1588.7,951.034 1592.04,949.667 1594.81,946.931C1597.57,944.196 1598.96,940.875 1598.96,936.968C1598.96,933.06 1597.57,929.723 1594.81,926.955C1592.04,924.187 1588.7,922.804 1584.79,922.804C1580.89,922.804 1577.53,924.204 1574.73,927.004ZM1557.34,936.968C1557.34,931.953 1558.57,927.346 1561.01,923.146C1563.45,918.945 1566.79,915.624 1571.02,913.182C1575.25,910.74 1579.84,909.519 1584.79,909.519C1586.42,909.519 1588.05,909.649 1589.68,909.909L1598.96,915.282L1598.96,910.3L1612.24,910.3L1612.24,963.538L1598.96,963.538L1598.96,958.654L1589.68,963.928C1588.05,964.254 1586.42,964.417 1584.79,964.417C1577.24,964.417 1570.78,961.731 1565.4,956.358C1560.03,950.985 1557.34,944.522 1557.34,936.968Z"/>
            </g>
            <g transform="matrix(0.837426,0,0,0.837426,111.317,236.264)">
                <path d="M1636.57,915.282L1646.24,909.714C1647.34,909.584 1648.45,909.519 1649.56,909.519C1653.2,909.519 1656.69,910.235 1660.01,911.668L1657.47,925.539C1655.45,923.976 1653.2,923.032 1650.73,922.706C1648.26,922.38 1645.99,922.625 1643.94,923.439C1641.89,924.253 1640.15,925.75 1638.72,927.932C1637.28,930.114 1636.57,932.735 1636.57,935.796L1636.57,963.538L1623.28,963.538L1623.28,910.3L1636.57,910.3L1636.57,915.282Z"/>
            </g>
            <g transform="matrix(0.837426,0,0,0.837426,111.317,236.264)">
                <path d="M1671.05,917.529C1676.45,912.189 1682.93,909.519 1690.49,909.519C1698.04,909.519 1704.51,912.189 1709.88,917.529C1715.25,922.869 1717.94,929.348 1717.94,936.968C1717.94,938.531 1717.81,940.094 1717.55,941.657L1677.2,941.657C1678.18,944.457 1679.87,946.72 1682.28,948.446C1684.69,950.171 1687.43,951.034 1690.49,951.034C1695.24,951.034 1699.02,949.146 1701.82,945.369L1716.67,945.369C1714.84,950.969 1711.54,955.544 1706.75,959.093C1701.97,962.642 1696.54,964.417 1690.49,964.417C1682.93,964.417 1676.47,961.731 1671.1,956.358C1665.72,950.985 1663.04,944.506 1663.04,936.919C1663.04,929.332 1665.71,922.869 1671.05,917.529ZM1678.18,930.032L1702.89,930.032C1701.66,927.818 1699.93,926.06 1697.72,924.757C1695.5,923.455 1693.09,922.804 1690.49,922.804C1687.88,922.804 1685.47,923.455 1683.26,924.757C1681.04,926.06 1679.35,927.818 1678.18,930.032Z"/>
            </g>
            <g transform="matrix(0.837426,0,0,0.837426,111.317,236.264)">
                <path d="M1758.77,951.132C1764.82,951.132 1769.97,948.95 1774.2,944.587L1784.07,953.672C1779.18,958.686 1773.36,961.975 1766.58,963.538C1763.98,964.124 1761.36,964.417 1758.72,964.417C1756.08,964.417 1753.49,964.124 1750.95,963.538C1743.07,961.779 1736.56,957.709 1731.42,951.327C1726.27,944.945 1723.7,937.619 1723.7,929.348C1723.7,923.878 1724.89,918.733 1727.27,913.914C1729.64,909.095 1732.9,905.058 1737.03,901.802C1741.17,898.545 1745.81,896.331 1750.95,895.159C1753.49,894.573 1756.08,894.28 1758.72,894.28C1761.36,894.28 1763.98,894.573 1766.58,895.159C1773.36,896.722 1779.18,900.011 1784.07,905.025L1774.2,914.11C1769.97,909.747 1764.82,907.565 1758.77,907.565C1752.78,907.565 1747.65,909.698 1743.38,913.963C1739.12,918.229 1736.99,923.357 1736.99,929.348C1736.99,935.34 1739.12,940.468 1743.38,944.734C1747.65,948.999 1752.78,951.132 1758.77,951.132Z"/>
            </g>
            <g transform="matrix(0.837426,0,0,0.837426,111.317,236.264)">
                <path d="M1804.39,915.282L1814.06,909.714C1815.16,909.584 1816.27,909.519 1817.38,909.519C1821.03,909.519 1824.51,910.235 1827.83,911.668L1825.29,925.539C1823.27,923.976 1821.03,923.032 1818.55,922.706C1816.08,922.38 1813.81,922.625 1811.76,923.439C1809.71,924.253 1807.97,925.75 1806.54,927.932C1805.1,930.114 1804.39,932.735 1804.39,935.796L1804.39,963.538L1791.1,963.538L1791.1,910.3L1804.39,910.3L1804.39,915.282Z"/>
            </g>
            <g transform="matrix(0.837426,0,0,0.837426,111.317,236.264)">
                <path d="M1838.87,917.529C1844.27,912.189 1850.75,909.519 1858.31,909.519C1865.86,909.519 1872.33,912.189 1877.7,917.529C1883.07,922.869 1885.76,929.348 1885.76,936.968C1885.76,938.531 1885.63,940.094 1885.37,941.657L1845.02,941.657C1846,944.457 1847.69,946.72 1850.1,948.446C1852.51,950.171 1855.25,951.034 1858.31,951.034C1863.06,951.034 1866.84,949.146 1869.64,945.369L1884.49,945.369C1882.66,950.969 1879.36,955.544 1874.57,959.093C1869.79,962.642 1864.36,964.417 1858.31,964.417C1850.75,964.417 1844.29,961.731 1838.92,956.358C1833.55,950.985 1830.86,944.506 1830.86,936.919C1830.86,929.332 1833.53,922.869 1838.87,917.529ZM1846,930.032L1870.71,930.032C1869.48,927.818 1867.75,926.06 1865.54,924.757C1863.32,923.455 1860.91,922.804 1858.31,922.804C1855.7,922.804 1853.29,923.455 1851.08,924.757C1848.87,926.06 1847.17,927.818 1846,930.032Z"/>
            </g>
            <g transform="matrix(0.837426,0,0,0.837426,111.317,236.264)">
                <path d="M1912.42,943.903L1922,910.3L1935.77,910.3L1945.34,943.903L1954.92,910.3L1968.79,910.3L1953.65,963.538L1937.14,963.538L1928.84,934.623L1920.63,963.538L1904.12,963.538L1888.98,910.3L1902.85,910.3L1912.42,943.903Z"/>
            </g>
            <g transform="matrix(4.16667,0,0,-4.16667,1341.93,1065.34)">
                <path d="M19.868,3.652C15.408,-1.215 7.919,-1.18 3.361,3.652C-1.119,8.403 -1.122,16.005 3.361,20.753C7.916,25.578 15.384,25.592 19.868,20.753" style="fill:none;stroke:rgb(76,154,248);stroke-width:1.49px;"/>
            </g>
        </g>
    </g>
</svg>
